<svg id="Laag_1" data-name="Laag 1" xmlns="http://www.w3.org/2000/svg" viewBox="0 0 490 489.9"><defs><style>.cls-1{fill:#0070c9;}</style></defs><path class="cls-1" d="M501,328.1c0-68.7-60.2-126.4-140.6-140.1a116.47,116.47,0,0,0,5.1-33.8C365.5,75.4,286.2,11,188.2,11S11,75.4,11,154.2c0,35.8,15.6,68.5,44.8,95.1L23.5,327l98-39.9a263.39,263.39,0,0,0,30,7.1,116.21,116.21,0,0,0-5,33.8c0,78.8,79.2,143.2,177.2,143.2A213,213,0,0,0,390.4,461l98,39.9-32.3-77.7c29.3-26.5,44.9-60.3,44.9-95.1ZM121.5,265.7,62.1,289.2l18.8-45s-49-33.1-49-89c0-67.5,69.9-122.8,156.4-122.8S344.7,87.6,346.8,154.1a105.34,105.34,0,0,1-5.1,31.4c-5.9-.5-11.8-.7-17.8-.7-74.6,0-138.2,37.3-164.4,89.8C147.5,273.6,121.5,265.7,121.5,265.7Zm268.9,174c-19.9,8-43.7,12.2-65.6,12.2-86.5,0-156.4-55.2-156.4-122.8s69.9-122.8,156.4-122.8,156.4,55.2,156.4,122.8c0,55.7-49,89-49,89l18.8,45-60.6-23.4Z" transform="translate(-11 -11)"/></svg>