<?xml version="1.0" encoding="utf-8"?>
<!-- Generator: Adobe Illustrator 25.0.0, SVG Export Plug-In . SVG Version: 6.00 Build 0)  -->
<svg version="1.1" id="Laag_1" xmlns="http://www.w3.org/2000/svg" xmlns:xlink="http://www.w3.org/1999/xlink" x="0px" y="0px"
	 viewBox="0 0 512 512" style="enable-background:new 0 0 512 512;" xml:space="preserve">
<style type="text/css">
	.st0{fill:#0070C9;}
</style>
<g>
	<path class="st0" d="M501,328.1c0-68.7-60.2-126.4-140.6-140.1c3.4-11.3,5.1-22.5,5.1-33.8C365.5,75.4,286.2,11,188.2,11
		S11,75.4,11,154.2c0,35.8,15.6,68.5,44.8,95.1L23.5,327l98-39.9c9.5,2.9,19.5,5.2,30,7.1c-3.3,10.9-5,22.2-5,33.8
		c0,78.8,79.2,143.2,177.2,143.2c22.9,0,44.8-3.1,66.7-10.2l98,39.9l-32.3-77.7C485.4,396.7,501,362.9,501,328.1L501,328.1z
		 M121.5,265.7l-59.4,23.5l18.8-45c0,0-49-33.1-49-89c0-67.5,69.9-122.8,156.4-122.8s156.4,55.2,158.5,121.7c0,11.1-2,21.3-5.1,31.4
		c-5.9-0.5-11.8-0.7-17.8-0.7c-74.6,0-138.2,37.3-164.4,89.8C147.5,273.6,121.5,265.7,121.5,265.7z M390.4,439.7
		c-19.9,8-43.7,12.2-65.6,12.2c-86.5,0-156.4-55.2-156.4-122.8c0-67.5,69.9-122.8,156.4-122.8s156.4,55.2,156.4,122.8
		c0,55.7-49,89-49,89l18.8,45L390.4,439.7L390.4,439.7z"/>
</g>
</svg>
